<svg width="24" height="24"
    xmlns="http://www.w3.org/2000/svg" enable-background="new 0 0 24 24">
    <g id="Layer_1">
        <title>Layer 1</title>
        <ellipse filter="url(#svg_1_blur)" fill="#5656ff" stroke="#aaaaff" cx="11.96875" cy="11.96875" id="svg_1" rx="10.90625" ry="11" stroke-width="2"/>
        <path filter="url(#svg_2_blur)" fill="#ffffff" stroke="#aaaaff" d="m10.32497,19.21923c-0.40216,-0.39628 -0.34938,-0.63624 0.62836,-2.85764c0.49372,-1.12168 0.89765,-2.07203 0.89765,-2.11187c0,-0.03984 -1.36332,-0.07243 -3.02961,-0.07243l-3.02961,0l0,-2.10081l0,-2.10081l3.05362,0c2.35451,0 3.02733,-0.06329 2.93881,-0.27642c-0.06313,-0.15204 -0.49382,-1.16089 -0.95708,-2.24191c-0.87325,-2.03774 -0.87297,-2.58421 0.00135,-2.75361c0.43511,-0.08429 7.20941,6.39247 7.44225,7.1154c-2.25646,2.58125 -4.95369,5.28317 -7.43828,7.66548c-0.13101,0 -0.35938,-0.11941 -0.50749,-0.26537l0,0l0.00001,0z" id="svg_2"/>
    </g>
    <defs>
        <filter id="svg_2_blur">
            <feGaussianBlur stdDeviation="0.1" in="SourceGraphic"/>
        </filter>
        <filter id="svg_1_blur">
            <feGaussianBlur stdDeviation="0.1" in="SourceGraphic"/>
        </filter>
    </defs>
</svg>