<svg width="24" height="24" xmlns="http://www.w3.org/2000/svg" enable-background="new 0 0 24 24">
 <g id="Layer_1">
  <title>Layer 1</title>
  <path fill="#007fff" stroke="#000" opacity="undefined" d="m11.68751,24c-6.45706,0 -11.68728,-5.59888 -11.68728,-12.125c0,-6.52612 5.23022,-11.81227 11.68728,-11.81227c6.45706,0 11.68728,5.28616 11.68728,11.81227c0,6.52612 -5.23022,12.125 -11.68728,12.125z" id="svg_1" stroke-width="0"/>
  <path id="svg_7" d="m19.76831,11.9075l-2.08618,-2.13653l0,-5.1027l-1.78845,0l0,3.27109l-4.17305,-4.27377l-8.04768,8.24191l1.91586,-0.04675l0,8.33262l12.17849,0l0,-8.28587l2.00102,0zm-8.04768,7.0941l-3.97411,0l0,-4.8843l3.97411,0l0,4.8843zm3.86101,-2.09327l-2.61148,0l0,-2.82034l2.61148,0l0,2.82034z" stroke-width="0" stroke="#000" fill="#aaffff"/>
 </g>

</svg>