<svg width="24" height="24" xmlns="http://www.w3.org/2000/svg" enable-background="new 0 0 24 24">
 <g id="Layer_1">
  <title>Layer 1</title>
  <path stroke-width="0" id="svg_1" d="m11.68751,24c-6.45706,0 -11.68728,-5.59888 -11.68728,-12.125c0,-6.52612 5.23022,-11.81227 11.68728,-11.81227c6.45706,0 11.68728,5.28616 11.68728,11.81227c0,6.52612 -5.23022,12.125 -11.68728,12.125z" opacity="undefined" stroke="#000" fill="#007fff"/>
  <path transform="rotate(180, 11.7188, 12.2188)" stroke-width="0" id="svg_3" d="m8.9499,17.61166c-0.65258,-0.29992 -0.56696,-0.48154 1.01966,-2.1628c0.80117,-0.84895 1.45666,-1.56822 1.45666,-1.59837c0,-0.03015 -2.2123,-0.05482 -4.91623,-0.05482l-4.91623,0l0,-1.59l0,-1.59l4.9552,0c3.82074,0 4.91254,-0.0479 4.76891,-0.20921c-0.10245,-0.11507 -0.80135,-0.87862 -1.55309,-1.69679c-1.41705,-1.54226 -1.41661,-1.95586 0.00219,-2.08406c0.70608,-0.0638 11.69895,4.83813 12.0768,5.38528c-3.66163,1.95362 -8.03851,3.99855 -12.07034,5.8016c-0.21259,0 -0.58317,-0.09038 -0.82352,-0.20084l0,0z" stroke="#000" fill="#aaffff"/>
 </g>
</svg>