<svg width="24" height="24" xmlns="http://www.w3.org/2000/svg" enable-background="new 0 0 24 24">
 <switch>
  <g id="svg_1">
   <circle id="svg_2" r="12" fill="#03b8ff" cy="12" cx="12"/>
   <path id="svg_3" fill="#fff" d="m17.9,11.6c0,-0.1 -0.1,-0.2 -0.2,-0.3l-5,-5c-0.4,-0.4 -1,-0.4 -1.4,0s-0.4,1 0,1.4l3.3,3.3l-7.6,0c-0.6,0 -1,0.4 -1,1s0.4,1 1,1l7.6,0l-3.3,3.3c-0.4,0.4 -0.4,1 0,1.4c0.4,0.4 1,0.4 1.4,0l5,-5c0.1,-0.1 0.2,-0.2 0.2,-0.3c0.1,-0.3 0.1,-0.5 0,-0.8z"/>
  </g>
 </switch>

 <g>
  <title>Layer 1</title>
 </g>
</svg>