<svg version="1.1" xmlns="http://www.w3.org/2000/svg" xmlns:xlink="http://www.w3.org/1999/xlink">
    
    <symbol id="basket" viewBox="0 0 72.1 72">
        <g>
            <circle cx="19.7" cy="66.5" r="5.5"/>
            <path d="M64.1,46.9H15.8V34.5H61c2.6,0,4.8-1.7,5.4-4.3l5.5-23.4c0.4-1.7,0.1-3.4-1-4.7c-1-1.3-2.6-2.1-4.3-2.1H3.2
		C1.4,0,0,1.4,0,3.2C0,5,1.4,6.4,3.2,6.4h6.2v41.4c0,3,2.5,5.5,5.5,5.5h49.2c1.8,0,3.2-1.4,3.2-3.2C67.3,48.3,65.9,46.9,64.1,46.9z
		 M15.8,6.4h49.7l-5.2,21.8H15.8V6.4z"/>
            <circle cx="57.2" cy="66.5" r="5.5"/>
        </g>
    </symbol>
    <symbol id="d21" viewBox="0 0 81.91 70.99" >
        <path d="M68.26,0A13.67,13.67,0,0,0,54.68,12.29H1.37A1.36,1.36,0,0,0,0,13.65v56A1.36,1.36,0,0,0,1.37,71H68.26A13.66,13.66,0,0,0,81.91,57.34V12.29a1.29,1.29,0,0,0-.16-.61A13.65,13.65,0,0,0,68.26,0ZM2.73,15H54.61V53.24s0,0,0,0a1,1,0,0,0,0,.17.9.9,0,0,0,.06.22l0,.13.09.14a1.18,1.18,0,0,0,.13.18l.09.11a.71.71,0,0,0,.14.1l.09.09,6.83,4.09.12.05.12.06a1.39,1.39,0,0,0,.46.08h0a1.27,1.27,0,0,0,.47-.09l.1,0a1.42,1.42,0,0,0,.38-.26s0,0,0,0A2.11,2.11,0,0,0,64,58L64,58a1.06,1.06,0,0,0,.09-.25.87.87,0,0,0,0-.28s0-.05,0-.09a4.1,4.1,0,0,1,8.19,0,4.33,4.33,0,0,1-2.95,4.1H2.73ZM68.26,68.26H2.73V64.17h66.9a1.26,1.26,0,0,0,.33,0,1.15,1.15,0,0,0,.17-.06h0a7,7,0,0,0,4.92-6.71,6.81,6.81,0,0,0-13.27-2.18l-4.1-2.46a11.93,11.93,0,0,1,10.54-6.28,10.92,10.92,0,0,1,0,21.84ZM79.18,49.18a13.63,13.63,0,0,0-10.92-5.49,15.08,15.08,0,0,0-10.92,4.78V13.65a10.92,10.92,0,0,1,21.84,0Z"/><rect x="10.92" y="20.48" width="2.73" height="2.73"/><rect x="19.11" y="20.48" width="2.73" height="2.73"/><rect x="27.3" y="20.48" width="2.73" height="2.73"/><rect x="35.5" y="20.48" width="2.73" height="2.73"/><rect x="43.69" y="20.48" width="2.73" height="2.73"/><rect x="15.02" y="28.67" width="2.73" height="2.73"/><rect x="23.21" y="28.67" width="2.73" height="2.73"/><rect x="31.4" y="28.67" width="2.73" height="2.73"/><rect x="39.59" y="28.67" width="2.73" height="2.73"/><rect x="10.92" y="36.86" width="2.73" height="2.73"/><rect x="19.11" y="36.86" width="2.73" height="2.73"/><rect x="27.3" y="36.86" width="2.73" height="2.73"/><rect x="35.5" y="36.86" width="2.73" height="2.73"/><rect x="43.69" y="36.86" width="2.73" height="2.73"/><rect x="15.02" y="45.05" width="2.73" height="2.73"/><rect x="23.21" y="45.05" width="2.73" height="2.73"/><rect x="31.4" y="45.05" width="2.73" height="2.73"/><rect x="39.59" y="45.05" width="2.73" height="2.73"/><rect x="10.92" y="53.24" width="2.73" height="2.73"/><rect x="19.11" y="53.24" width="2.73" height="2.73"/><rect x="27.3" y="53.24" width="2.73" height="2.73"/><rect x="35.5" y="53.24" width="2.73" height="2.73"/><rect x="43.69" y="53.24" width="2.73" height="2.73"/>
    </symbol>
    <symbol id="d37" viewBox="0 0 73.08 67.99" >
        <path d="M63.42,37.15a1.37,1.37,0,0,0-1.37,1.38v4.12H43.55v-1.3l4.14-3.23,4.18,2.51a1.37,1.37,0,0,0,.91.17,1.4,1.4,0,0,0,.82-.43l2-2.25a1.37,1.37,0,0,0-2-1.84l-1.28,1.41-4-2.41a1.38,1.38,0,0,0-1.62.08l-3.23,2.47V31.69h9.1a1.37,1.37,0,0,0,0-2.74H42.18a1.37,1.37,0,0,0-1.37,1.37h0V44a1.37,1.37,0,0,0,1.37,1.37H63.42A1.37,1.37,0,0,0,64.79,44V38.48A1.37,1.37,0,0,0,63.42,37.15Z"/><path d="M63.42,48.11H42.18a1.37,1.37,0,1,0,0,2.74H63.42a1.37,1.37,0,1,0,0-2.74Z"/><path d="M63.42,53.6H42.18a1.37,1.37,0,1,0,0,2.74H63.42a1.37,1.37,0,1,0,0-2.74Z"/><circle cx="24.93" cy="1.37" r="1.37"/><path d="M32.54,4.09a21.55,21.55,0,0,1,12,10.45,1.37,1.37,0,0,0,1.93.14,1.36,1.36,0,0,0,.42-1.42A24.51,24.51,0,0,0,33.49,1.52a1.37,1.37,0,0,0-1,2.57Z"/><path d="M2.7,17a1.37,1.37,0,0,0,1.81-.7h0A22,22,0,0,1,19.76,3.36,1.38,1.38,0,0,0,19.11.69,24.73,24.73,0,0,0,2,15.23,1.37,1.37,0,0,0,2.7,17Z"/><path d="M28.43,46.85a22.83,22.83,0,0,1-17.94-5,23,23,0,0,1-7.71-18A1.38,1.38,0,1,0,0,23.68,25.67,25.67,0,0,0,8.09,43.34a25.66,25.66,0,0,0,20.34,6.25,1.37,1.37,0,1,0,0-2.74Z"/><path d="M72.71,30.13h0L61.13,18.54h0a1.46,1.46,0,0,0-1-.43H36.49a3.94,3.94,0,0,0-3.94,3.94h0v42A3.94,3.94,0,0,0,36.49,68H69.14a3.93,3.93,0,0,0,3.94-3.94v-33A1.35,1.35,0,0,0,72.71,30.13ZM69.14,65.2H36.49A1.19,1.19,0,0,1,35.3,64h0V22a1.19,1.19,0,0,1,1.19-1.19h23L70.34,31.65H59.51V24.93a1.37,1.37,0,1,0-2.74,0V33a1.37,1.37,0,0,0,1.37,1.38h12.2V64A1.2,1.2,0,0,1,69.14,65.2Z"/><path d="M28.43,41.27h0A16.68,16.68,0,1,1,38.12,14.8h0a1.38,1.38,0,0,0,1.93.22,1.36,1.36,0,0,0,.35-1.82A19.38,19.38,0,1,0,28.43,44h0a1.38,1.38,0,1,0,0-2.75Z"/><path d="M26.3,11.16a1.38,1.38,0,0,0-2.75,0h0v13.2l-5.42,5.43A1.37,1.37,0,1,0,20,31.84a1.14,1.14,0,0,0,.11-.11l5.8-5.88a1.37,1.37,0,0,0,.41-1h0Z"/>
    </symbol>
    <symbol id="d34" viewBox="0 0 78.99 78.99" >
        <path d="M39.5,65.83A26.34,26.34,0,1,1,65.83,39.5,26.37,26.37,0,0,1,39.5,65.83Zm0-50A23.7,23.7,0,1,0,63.19,39.5,23.72,23.72,0,0,0,39.5,15.8Z"/><path d="M39.5,79a1.32,1.32,0,0,1-1.32-1.32v-7.9a1.32,1.32,0,0,1,2.63,0v7.9A1.32,1.32,0,0,1,39.5,79Z"/><path d="M39.5,10.53a1.32,1.32,0,0,1-1.32-1.31V1.32a1.32,1.32,0,1,1,2.63,0v7.9A1.31,1.31,0,0,1,39.5,10.53Z"/><path d="M9.22,40.81H1.32a1.32,1.32,0,1,1,0-2.63h7.9a1.32,1.32,0,0,1,0,2.63Z"/><path d="M77.67,40.81h-7.9a1.32,1.32,0,0,1,0-2.63h7.9a1.32,1.32,0,1,1,0,2.63Z"/><path d="M32.91,59.24a1.25,1.25,0,0,1-.59-.14,1.31,1.31,0,0,1-.69-1.47l3.58-15.5H29A1.32,1.32,0,0,1,28,40L45.08,20.2a1.33,1.33,0,0,1,1.59-.31,1.31,1.31,0,0,1,.69,1.47l-3.58,15.5H50A1.32,1.32,0,0,1,51,39L33.91,58.79A1.34,1.34,0,0,1,32.91,59.24ZM31.85,39.5h5a1.31,1.31,0,0,1,1.28,1.61l-2.75,12L47.14,39.5h-5a1.33,1.33,0,0,1-1-.5,1.36,1.36,0,0,1-.26-1.12l2.76-12Z"/><path d="M66.49,67.81a1.3,1.3,0,0,1-.93-.39L60,61.84A1.32,1.32,0,1,1,61.84,60l5.58,5.58a1.3,1.3,0,0,1,0,1.86A1.29,1.29,0,0,1,66.49,67.81Z"/><path d="M18.08,19.4a1.32,1.32,0,0,1-.93-.39l-5.58-5.58a1.32,1.32,0,0,1,1.86-1.86L19,17.15a1.32,1.32,0,0,1-.94,2.25Z"/><path d="M12.5,67.81a1.29,1.29,0,0,1-.93-.39,1.3,1.3,0,0,1,0-1.86L17.15,60A1.32,1.32,0,1,1,19,61.84l-5.59,5.58A1.3,1.3,0,0,1,12.5,67.81Z"/><path d="M60.91,19.4A1.29,1.29,0,0,1,60,19a1.3,1.3,0,0,1,0-1.86l5.58-5.58a1.32,1.32,0,1,1,1.86,1.86L61.84,19A1.32,1.32,0,0,1,60.91,19.4Z"/>
    </symbol>
    <!--    %   -->
    <symbol id="d3" viewBox="0 0 78.99 78.99" >
        <path d="M78.56,46.1,32.89.44A1.5,1.5,0,0,0,31.83,0H1.49A1.49,1.49,0,0,0,0,1.49V31.83a1.5,1.5,0,0,0,.44,1.06L46.1,78.55a1.51,1.51,0,0,0,1.06.44,1.49,1.49,0,0,0,1.05-.44L78.56,48.21a1.51,1.51,0,0,0,0-2.11ZM47.16,75.4,3,31.22V3H31.22L75.4,47.16Z"/><path d="M16.66,9.82a6.84,6.84,0,1,0,6.84,6.84A6.85,6.85,0,0,0,16.66,9.82Zm0,10.71a3.87,3.87,0,1,1,3.87-3.87A3.88,3.88,0,0,1,16.66,20.53Z"/><path d="M50.87,46.86a5.51,5.51,0,1,0-5.5-5.51A5.51,5.51,0,0,0,50.87,46.86Zm0-8a2.53,2.53,0,1,1-2.52,2.52A2.52,2.52,0,0,1,50.87,38.83Z"/><path d="M26.33,41.35a5.51,5.51,0,1,0,5.5-5.5A5.51,5.51,0,0,0,26.33,41.35Zm5.5-2.52a2.53,2.53,0,1,1-2.53,2.52A2.52,2.52,0,0,1,31.83,38.83Z"/><path d="M41.35,58.16a1.48,1.48,0,0,0,1.49-1.48V26.18a1.49,1.49,0,1,0-3,0v30.5A1.48,1.48,0,0,0,41.35,58.16Z"/>
    </symbol>
    <symbol id="view1" viewBox="0 0 37 11.98" >
        <path d="M35.71,2.57H1.28A1.29,1.29,0,0,1,1.28,0H35.71a1.29,1.29,0,1,1,0,2.57Z"/><path d="M35.71,12H1.28a1.29,1.29,0,0,1,0-2.57H35.71a1.29,1.29,0,1,1,0,2.57Z"/>
    </symbol>
    <symbol id="arrow-right" viewBox="0 0 22 14.53" >
        <path class="cls-1" d="M21.27,5.6,15.91.24a.8.8,0,0,0-1.14,0,.8.8,0,0,0,0,1.14l5,5H.81A.77.77,0,0,0,0,7.22.77.77,0,0,0,.81,8H20l-5.2,5.19a.8.8,0,0,0,0,1.14,1,1,0,0,0,.65.16c.33,0,.49,0,.49-.16L21.27,9A2.36,2.36,0,0,0,21.27,5.6Z"/>
    </symbol>
    <symbol id="view2" viewBox="0 0 34.64 11.98" >
        <path d="M11.43,2.57H33.36a1.29,1.29,0,0,0,0-2.57H11.43a1.29,1.29,0,0,0,0,2.57Z"/><path d="M33.36,9.41H11.43a1.29,1.29,0,0,0,0,2.57H33.36a1.29,1.29,0,0,0,0-2.57Z"/><path d="M6.62,0H1.28a1.29,1.29,0,0,0,0,2.57H6.62A1.29,1.29,0,0,0,6.62,0Z"/><path d="M6.62,9.41H1.28a1.29,1.29,0,0,0,0,2.57H6.62a1.29,1.29,0,0,0,0-2.57Z"/>
    </symbol>
    <symbol id="view3" viewBox="0 0 23.1 23" >
        <path d="M9.14,0H1.28A1.28,1.28,0,0,0,0,1.28V9.14a1.28,1.28,0,0,0,1.28,1.28H9.14a1.28,1.28,0,0,0,1.28-1.28V1.28A1.28,1.28,0,0,0,9.14,0ZM7.86,7.86H2.56V2.56h5.3Z"/><path d="M21.82,0H14a1.28,1.28,0,0,0-1.28,1.28V9.14A1.28,1.28,0,0,0,14,10.42h7.86A1.28,1.28,0,0,0,23.1,9.14V1.28A1.28,1.28,0,0,0,21.82,0ZM20.54,7.86H15.23V2.56h5.31Z"/><path d="M9.14,12.58H1.28A1.28,1.28,0,0,0,0,13.86v7.86A1.28,1.28,0,0,0,1.28,23H9.14a1.28,1.28,0,0,0,1.28-1.28V13.86A1.28,1.28,0,0,0,9.14,12.58ZM7.86,20.44H2.56V15.13h5.3Z"/><path d="M21.82,12.58H14a1.28,1.28,0,0,0-1.28,1.28v7.86A1.28,1.28,0,0,0,14,23h7.86a1.28,1.28,0,0,0,1.28-1.28V13.86A1.28,1.28,0,0,0,21.82,12.58Zm-1.28,7.86H15.23V15.13h5.31Z"/>
    </symbol>
    <symbol id="personality" viewBox="0 0 75.5 75.5">
        <g>
            <path class="st0" d="M4.9,68.2c0-1.8,4.5-4,7.6-4.7h0.3l18.7-7c1-0.4,1.6-1.3,1.5-2.3v-6.3c0-0.9-0.5-1.7-1.3-2.1
		c-4.9-2.3-8-7.3-8-12.7c0-1.3-1-2.3-2.3-2.3V26c1.3,0,2.3-1,2.3-2.3V19c0-7.8,6.3-14.1,14.1-14.1S51.8,11.2,51.8,19v4.7
		c0,1.3,1,2.3,2.3,2.3v4.7h4.7V26c0-1.7-0.9-3.2-2.3-4.1v-3c0-10.4-8.4-18.7-18.7-18.7S19,8.6,19,19v3c-1.4,0.8-2.3,2.4-2.3,4.1v4.7
		c0,1.7,0.9,3.3,2.3,4.1c0.6,6,4.1,11.4,9.4,14.4v3.3l-17.1,6.3c-2.1,0.5-11,3.2-11,9.4v4.7c0,1.3,1,2.3,2.3,2.3h32.8v-4.7H4.9V68.2
		z"/>
            <path class="st0" d="M56.5,37.7c-10.4,0-18.7,8.4-18.7,18.7s8.4,18.7,18.7,18.7s18.7-8.4,18.7-18.7S66.8,37.7,56.5,37.7z
		 M56.5,70.5c-7.8,0-14.1-6.3-14.1-14.1s6.3-14.1,14.1-14.1s14.1,6.3,14.1,14.1S64.2,70.5,56.5,70.5z"/>
            <path class="st0" d="M57.2,47.8l-7,7c-0.9,0.9-0.9,2.4,0,3.3l7,7l3.3-3.3l-5.4-5.4l5.4-5.4L57.2,47.8z"/>
        </g>
    </symbol>
    <symbol id="instagram" viewBox="0 0 99 99">
        <g>
            <path d="M49.7,30.1c6.3,0,7,0,9.5,0.1c2.3,0.1,3.5,0.5,4.4,0.8c1.1,0.4,1.9,0.9,2.7,1.8c0.8,0.8,1.3,1.6,1.8,2.7
		c0.3,0.8,0.7,2.1,0.8,4.4c0.1,2.5,0.1,3.2,0.1,9.5s0,7-0.1,9.5c-0.1,2.3-0.5,3.5-0.8,4.4c-0.4,1.1-0.9,1.9-1.8,2.7
		c-0.8,0.8-1.6,1.3-2.7,1.8c-0.8,0.3-2.1,0.7-4.4,0.8c-2.5,0.1-3.2,0.1-9.5,0.1s-7,0-9.5-0.1c-2.3-0.1-3.5-0.5-4.4-0.8
		c-1.1-0.4-1.9-0.9-2.7-1.8c-0.8-0.8-1.3-1.6-1.8-2.7c-0.3-0.8-0.7-2.1-0.8-4.4c-0.1-2.5-0.1-3.2-0.1-9.5s0-7,0.1-9.5
		c0.1-2.3,0.5-3.5,0.8-4.4c0.4-1.1,0.9-1.9,1.8-2.7c0.8-0.8,1.6-1.3,2.7-1.8c0.8-0.3,2.1-0.7,4.4-0.8C42.7,30.1,43.4,30.1,49.7,30.1
		 M49.7,25.8c-6.4,0-7.2,0-9.7,0.1s-4.2,0.5-5.7,1.1s-2.9,1.4-4.2,2.7c-1.3,1.3-2.1,2.6-2.7,4.2c-0.6,1.5-1,3.2-1.1,5.7
		s-0.1,3.3-0.1,9.7s0,7.2,0.1,9.7s0.5,4.2,1.1,5.7s1.4,2.9,2.7,4.2c1.3,1.3,2.6,2.1,4.2,2.7c1.5,0.6,3.2,1,5.7,1.1s3.3,0.1,9.7,0.1
		s7.2,0,9.7-0.1s4.2-0.5,5.7-1.1c1.5-0.6,2.9-1.4,4.2-2.7c1.3-1.3,2.1-2.6,2.7-4.2c0.6-1.5,1-3.2,1.1-5.7s0.1-3.3,0.1-9.7
		s0-7.2-0.1-9.7s-0.5-4.2-1.1-5.7s-1.4-2.9-2.7-4.2c-1.3-1.3-2.6-2.1-4.2-2.7c-1.5-0.6-3.2-1-5.7-1.1C56.9,25.8,56.1,25.8,49.7,25.8
		"/>
            <path d="M49.7,37.3c-6.7,0-12.1,5.4-12.1,12.1S43,61.5,49.7,61.5S61.8,56,61.8,49.3C61.8,42.7,56.4,37.3,49.7,37.3 M49.7,57.2
		c-4.3,0-7.8-3.5-7.8-7.8s3.5-7.8,7.8-7.8s7.8,3.5,7.8,7.8S54.1,57.2,49.7,57.2"/>
            <path d="M65.1,36.8c0,1.6-1.3,2.8-2.8,2.8c-1.6,0-2.8-1.3-2.8-2.8c0-1.6,1.3-2.8,2.8-2.8S65.1,35.2,65.1,36.8"/>
        </g>
    </symbol>
    <symbol id="vk" viewBox="0 0 99 99">
        <path d="M76.9,35.7c-0.7-0.5-3.4-0.5-6-0.5c-2.7,0.1-5.4,0.1-6,0.3s-1.9,3.3-3.5,6.6c-1.9,3.6-4.3,7.1-5.7,7.1
	c-1.9,0-1.5-5.9-1.3-10.4c0-2.9-0.4-3.8-0.9-4.1c-1-0.7-3.8-1.4-3.8-1.4s-8.4-0.6-9.6,3c1.6,0.2,4.4-0.3,3.3,10.9
	c-0.1,0.5-1.3,5.2-5.2-1.1c-1-1.6-4.7-10.9-6-11c-4.3-0.1-8.6-0.3-10.1,0.5c-1.4,0.8,1.9,7.2,7.4,15.8C34,58.5,38.7,64,46.9,65.3
	c1.6,0.2,5.6,0.3,6.9-0.3c0.8-0.4-0.2-6.5,2.7-7.1c1.3-0.2,6.3,6.4,8.2,7.1c1.2,0.5,3.7,0.7,6.3,0.5c2.8-0.1,6,0.3,6.3-1.6
	c0.7-4.2-8.5-9.7-8.7-12.3c-0.2-1.9,3.3-5.3,5.2-7.9C75.8,40.8,78.3,36.9,76.9,35.7L76.9,35.7z"/>
    </symbol>
    <symbol id="facebook"  viewBox="0 0 99 99">
        <path d="M53.3,39.4v-4.1c0-1.9,1.3-2.4,2.2-2.4s5.7,0,5.7,0v-8.7h-7.8c-8.7,0-10.6,6.4-10.6,10.6v4.6h-5v6.1v4h5.1
	c0,11.5,0,25.3,0,25.3H53c0,0,0-14,0-25.3h7.5l0.3-4l0.6-6.1L53.3,39.4z"/>
    </symbol>
    <symbol id="search" viewBox="0 0 71.3 71.1">
        <path d="M60.5,30.2C60.4,13.6,46.8,0,30.2,0C13.5,0,0,13.5,0,30.2s13.5,30.2,30.2,30.2c6.3,0,12.3-1.9,17.4-5.6l1.4-1l16.3,16.3
	c0.6,0.6,1.5,1,2.4,1c0.5,0,1.6-0.1,2.3-0.9l0.2-0.2c0.7-0.7,1.1-1.7,1.1-2.7c0-0.5-0.2-1.3-1-2l-0.1-0.1L53.9,49l1-1.4
	C58.5,42.4,60.5,36.3,60.5,30.2z M49.3,43.8L47,47l-3.3,2.3c-4.1,2.9-8.7,4.4-13.5,4.4c-13,0-23.5-10.5-23.5-23.5
	c0-13,10.5-23.5,23.5-23.5s23.5,10.5,23.5,23.5C53.7,35.1,52.2,39.6,49.3,43.8z"/>
    </symbol>
    <symbol id="arrow" viewBox="0 0 40 40">
        <g>
            <g>
                <g>
                    <g>
                        <path class="st0" d="M22.4,24.5c-0.1,0-0.3,0-0.4-0.1c-0.2-0.2-0.2-0.5,0-0.7l3.3-3.3c0.2-0.2,0.2-0.5,0-0.7L22,16.4
					c-0.2-0.2-0.2-0.5,0-0.7s0.5-0.2,0.7,0L26,19c0.6,0.6,0.6,1.5,0,2.1l-3.3,3.3C22.7,24.5,22.6,24.5,22.4,24.5z"/>
                    </g>
                    <g>
                        <path class="st0" d="M25.4,20.5h-12c-0.3,0-0.5-0.2-0.5-0.5s0.2-0.5,0.5-0.5h12c0.3,0,0.5,0.2,0.5,0.5S25.7,20.5,25.4,20.5z"/>
                    </g>
                </g>
            </g>
        </g>
    </symbol>

    <symbol id="hit" viewBox="0 0 76.4 76.4">
        <path d="M76.1,28.5c-0.7-2.1-2.5-3.7-4.7-4l-19.4-3l-8.4-18c-0.7-1.4-1.9-2.5-3.3-3.1c-1.5-0.5-3.1-0.5-4.5,0.2
	c-1.3,0.6-2.3,1.6-2.9,2.9l-8.4,18L5,24.4c-1.6,0.3-3,1.1-3.9,2.4c-0.9,1.3-1.3,2.9-1.1,4.5c0.2,1.2,0.8,2.3,1.6,3.2l14.2,14.6
	l-3.3,20.3c-0.3,1.6,0.1,3.1,1,4.4c0.9,1.3,2.3,2.2,3.9,2.4c0.3,0.1,0.7,0.1,1,0.1c1,0,2-0.3,2.9-0.7l16.8-9.4l16.9,9.4
	c0.9,0.5,1.9,0.7,2.9,0.7c3.3,0,6-2.7,5.9-6c0-0.3,0-0.7-0.1-1l-3.3-20.3l14.2-14.6C76.3,32.9,76.8,30.6,76.1,28.5z M22.7,49.7
	c0.3-1.8-0.3-3.7-1.6-5L7.9,30.9L26,28.1c1.9-0.3,3.5-1.5,4.4-3.3L38.2,8L46,24.8c0.8,1.8,2.5,3,4.4,3.3l18.1,2.8L55.3,44.7
	c-1.3,1.3-1.9,3.2-1.6,5l3.1,19L41,59.9c-1.8-1-3.9-1-5.6,0l-15.7,8.8L22.7,49.7z"/>
    </symbol>
    <symbol id="hot" viewBox="0 0 60 75" >
        <path d="M51.1,26.3c-1.7-1.4-6.1-4.5-6.5-4.8c-5.2-4.6-7.2-8.9-5.2-16.9c0.5-2-0.8-4-2.8-4.5c-0.8-0.2-1.7-0.1-2.5,0.3
	C21.8,6.4,16.8,19,17.8,30.2c-1.6-2.4-2.5-5.1-2.7-8c-0.2-2.1-2-3.6-4.1-3.4c-1.1,0.1-2.2,0.8-2.8,1.7C2,30.1,0,35.8,0,45
	c0,16.6,13.4,30,30,30s30-13.4,30-30C60,37,56.8,31.1,51.1,26.3z M30,67.6c-12.4,0-22.5-10-22.5-22.4v-0.1c0-7.6,1.6-10.3,2.7-13
	c2.8,5.5,7.5,9.1,12.3,9.1c2.1,0,3.8-1.7,3.8-3.7c0-0.3,0-0.5-0.1-0.8c-3.2-15.1,2.5-22.7,5-25.1c0.4,6.3,3.5,11,8.4,15.5
	c0.8,0.7,5.4,3.9,6.6,5c4.1,3.5,6.3,7.4,6.3,13c0.1,12.4-9.9,22.5-22.2,22.5C30.2,67.6,30.1,67.6,30,67.6z"/>
    </symbol>

<!--    background-image: linear-gradient(-225deg, #7282bc 0%, #7abfcc 100%);-->
</svg>