<svg width="24" height="24"
    xmlns="http://www.w3.org/2000/svg" enable-background="new 0 0 24 24">
    <g id="Layer_1">
        <title>Layer 1</title>
        <ellipse filter="url(#svg_1_blur)" fill="#5656ff" stroke="#aaaaff" cx="11.96875" cy="11.96875" id="svg_1" rx="10.90625" ry="11" stroke-width="2"/>
        <path transform="rotate(180, 12, 12)" filter="url(#svg_2_blur)" fill="#ffffff" stroke="#aaaaff" d="m10.27663,19.12548c-0.40618,-0.39628 -0.35288,-0.63624 0.63466,-2.85764c0.49866,-1.12168 0.90665,-2.07203 0.90665,-2.11187c0,-0.03984 -1.37698,-0.07243 -3.05995,-0.07243l-3.05995,0l0,-2.10081l0,-2.10081l3.08421,0c2.3781,0 3.05765,-0.06329 2.96825,-0.27642c-0.06376,-0.15204 -0.49877,-1.16089 -0.96667,-2.24191c-0.882,-2.03774 -0.88172,-2.58421 0.00136,-2.75361c0.43947,-0.08429 7.28163,6.39247 7.5168,7.1154c-2.27906,2.58125 -5.00331,5.28317 -7.51279,7.66548c-0.13232,0 -0.36298,-0.11941 -0.51257,-0.26537l0,0l0.00001,0z" id="svg_2"/>
    </g>
    <defs>
        <filter id="svg_2_blur">
            <feGaussianBlur stdDeviation="0.1" in="SourceGraphic"/>
        </filter>
        <filter id="svg_1_blur">
            <feGaussianBlur stdDeviation="0.1" in="SourceGraphic"/>
        </filter>
    </defs>
</svg>